<svg xmlns="http://www.w3.org/2000/svg" viewBox="0 0 128 128" width="128" height="128">
  <defs>
    <linearGradient id="devopsGradient" x1="0%" y1="0%" x2="100%" y2="100%">
      <stop offset="0%" stop-color="#0073ce" />
      <stop offset="100%" stop-color="#45dfa8" />
    </linearGradient>
    <filter id="shadow" x="-10%" y="-10%" width="120%" height="120%">
      <feDropShadow dx="0" dy="4" stdDeviation="4" flood-color="#0073ce" flood-opacity="0.3"/>
    </filter>
  </defs>
  <!-- Sfondo scuro elegante per l'icona -->
  <rect width="128" height="128" rx="28" fill="#131313" />
  <!-- Simbolo dell'infinito DevOps con sfumatura -->
  <path 
    d="M 36,44 C 23,44 12,53 12,64 C 12,75 23,84 36,84 C 48,84 57,75 64,68 C 71,75 80,84 92,84 C 105,84 116,75 116,64 C 116,53 105,44 92,44 C 80,44 71,53 64,60 C 57,53 48,44 36,44 Z" 
    fill="none" 
    stroke="url(#devopsGradient)" 
    stroke-width="12" 
    stroke-linecap="round" 
    stroke-linejoin="round"
    filter="url(#shadow)"
  />
  <!-- Pallino di stato "Online / Secure" -->
  <circle cx="94" cy="34" r="8" fill="#1CC691" stroke="#131313" stroke-width="2"/>
</svg>